# xmcd
# 
# Track frame offsets:
#     150
#     11857
#     40025
#     71247
#     91802
#     112702
#     144655
#     179957
#     204032
#     223072
#     233582
#     248495
# 
# Disc length: 3625
# 
# Revision: 4
# Processed by: cddbd v1.5.2PL0 Copyright (c) Steve Scherf et al.
# Submitted via: fre:ac v1.0.17
# 
DISCID=a10e270c
DTITLE=シャルル デュトワ／モントリオール交響楽団 - レスピーギ：交響詩「ローマの松」・「ローマの祭り」・「ローマの噴水」
DYEAR=2003
DGENRE=Classical
TTITLE0=第１曲　ボルゲーゼ荘の松～交響詩「ローマの松」
TTITLE1=第２曲　カタコンブ付近の松～交響詩「ローマの松」
TTITLE2=第３曲　ジャニコロの松～交響詩「ローマの松」
TTITLE3=第４曲　アッピア街道の松～交響詩「ローマの松」
TTITLE4=第１曲　チルチェンセス～交響詩「ローマの祭り」
TTITLE5=第２曲　五十年祭～交響詩「ローマの祭り」
TTITLE6=第３曲　十月祭～交響詩「ローマの祭り」
TTITLE7=第４曲　主顕祭～交響詩「ローマの祭り」
TTITLE8=第１曲　夜明けのジュリアの谷の噴水～交響詩「ローマの噴水」
TTITLE9=第２曲　朝のトリトーネの噴水～交響詩「ローマの噴水」
TTITLE10=第３曲　昼のトレヴィの噴水～交響詩「ローマの噴水」
TTITLE11=第４曲　たそがれのメディチ荘の谷の噴水～交響詩「ローマの噴水」
EXTD=Orchestre symphonique de Montreal/Charles Dutoit\n YEAR: 2003
EXTT0=
EXTT1=
EXTT2=
EXTT3=
EXTT4=
EXTT5=
EXTT6=
EXTT7=
EXTT8=
EXTT9=
EXTT10=
EXTT11=
PLAYORDER=
